<?xml version="1.0" standalone="no"?>
<!DOCTYPE svg PUBLIC "-//W3C//DTD SVG 20010904//EN"
 "http://www.w3.org/TR/2001/REC-SVG-20010904/DTD/svg10.dtd">
<svg version="1.0" xmlns="http://www.w3.org/2000/svg"
 width="700.000000pt" height="700.000000pt" viewBox="0 0 700.000000 700.000000"
 preserveAspectRatio="xMidYMid meet">
<metadata>
Created by potrace 1.14, written by Peter Selinger 2001-2017
</metadata>
<g transform="translate(0.000000,700.000000) scale(0.100000,-0.100000)"
fill="#000000" stroke="none">
<path d="M3500 5316 l0 -995 -355 227 c-195 125 -366 234 -380 242 -14 8 -169
107 -345 220 -176 113 -382 244 -458 292 -173 110 -181 115 -275 177 -43 28
-82 51 -87 51 -4 0 -13 7 -20 15 -7 8 -24 21 -39 28 -14 8 -93 57 -176 110
-342 219 -426 273 -450 287 -24 14 -27 13 -45 -10 -10 -13 -17 -27 -14 -31 3
-6 333 -220 376 -244 19 -11 97 -61 313 -200 72 -46 153 -98 180 -115 28 -17
69 -43 93 -58 23 -15 131 -83 239 -152 108 -69 245 -156 304 -195 60 -38 158
-101 219 -140 61 -38 138 -88 173 -110 34 -22 216 -139 405 -259 l342 -218 0
-227 0 -226 352 1 353 1 235 -150 c129 -82 253 -161 275 -174 22 -13 99 -62
170 -108 72 -46 184 -118 250 -160 66 -42 203 -130 305 -195 102 -65 282 -180
400 -255 118 -75 271 -172 338 -216 l124 -79 19 23 c10 12 18 25 19 28 0 9
-58 46 -605 394 -524 333 -574 365 -720 460 -49 32 -99 64 -110 70 -11 6 -47
28 -80 49 -183 118 -321 207 -378 242 -26 16 -60 38 -77 50 l-29 21 1035 -1
c570 -1 1040 2 1046 5 7 5 13 1743 8 2462 l0 57 -1465 0 -1465 0 0 -994z"/>
<path d="M1875 3629 c-354 -72 -639 -283 -815 -604 -39 -72 -91 -209 -105
-280 -5 -22 -9 -42 -10 -45 -7 -25 -17 -122 -19 -182 -9 -245 63 -494 204
-704 90 -132 264 -292 391 -359 125 -65 201 -94 309 -119 662 -151 1308 277
1424 944 16 96 19 290 5 365 -5 28 -12 65 -15 84 -9 52 -52 179 -86 251 -82
175 -242 361 -403 469 -132 89 -266 144 -435 179 -125 26 -319 27 -445 1z"/>
</g>
</svg>
