<svg xmlns="http://www.w3.org/2000/svg" enable-background="new 0 0 25 25" viewBox="0 0 25 25"><path fill="#583689" d="M17.5,18c-1.378,0-2.5-1.121-2.5-2.5s1.122-2.5,2.5-2.5s2.5,1.121,2.5,2.5S18.878,18,17.5,18z M17.5,15c-0.276,0-0.5,0.225-0.5,0.5s0.224,0.5,0.5,0.5s0.5-0.225,0.5-0.5S17.776,15,17.5,15z"/><path fill="#583689" d="M5.848,25.013c-1.669,0-3.155-0.523-4.246-1.614c-2.625-2.625-1.956-7.698,1.589-12.063c0.349-0.429,0.979-0.492,1.407-0.146c0.429,0.349,0.494,0.979,0.146,1.407c-2.84,3.496-3.583,7.532-1.728,9.388c2.108,2.107,6.966,0.812,10.607-2.828c0.892-0.893,1.657-1.861,2.271-2.88c0.286-0.472,0.9-0.627,1.373-0.338c0.473,0.285,0.625,0.9,0.339,1.373c-0.698,1.155-1.563,2.252-2.569,3.259C12.15,23.456,8.726,25.013,5.848,25.013z"/><path fill="#583689" d="M6.953,19.327c-0.668,0-1.296-0.26-1.768-0.732s-0.732-1.101-0.732-1.768c0-0.669,0.26-1.297,0.733-1.769c0.942-0.943,2.59-0.944,3.535,0.001c0.472,0.471,0.732,1.099,0.732,1.768c0,0.668-0.26,1.295-0.732,1.768S7.62,19.327,6.953,19.327z M6.953,16.327c-0.078,0-0.226,0.019-0.353,0.146c-0.128,0.128-0.147,0.276-0.147,0.354s0.019,0.226,0.146,0.354h0c0.127,0.128,0.275,0.146,0.353,0.146c0.077,0,0.226-0.019,0.354-0.146s0.146-0.276,0.146-0.354s-0.019-0.226-0.146-0.353C7.179,16.346,7.03,16.327,6.953,16.327z"/><path fill="#583689" d="M6.567,16.382c-0.449,0-0.858-0.305-0.97-0.761c-0.323-1.313-0.487-2.7-0.487-4.121c0-6.448,3.294-11.5,7.5-11.5c3.713,0,6.827,4.061,7.405,9.654c0.057,0.549-0.342,1.04-0.892,1.098c-0.556,0.043-1.041-0.343-1.098-0.893C17.562,5.379,15.234,2,12.609,2c-2.981,0-5.5,4.351-5.5,9.5c0,1.261,0.145,2.485,0.43,3.643c0.132,0.536-0.196,1.078-0.732,1.21C6.727,16.373,6.646,16.382,6.567,16.382z"/><path fill="#DE002A" d="M10.985,12.164c-0.303,0-0.607-0.056-0.899-0.168c-0.623-0.239-1.116-0.708-1.387-1.318c-0.271-0.609-0.288-1.289-0.048-1.912S9.359,7.649,9.97,7.379c0.61-0.271,1.289-0.289,1.913-0.049c0.623,0.24,1.115,0.708,1.386,1.318c0.271,0.61,0.289,1.29,0.048,1.913c-0.24,0.623-0.708,1.116-1.319,1.387C11.674,12.092,11.33,12.164,10.985,12.164z M10.983,9.163c-0.061,0-0.129,0.012-0.202,0.044h0c-0.165,0.073-0.235,0.205-0.263,0.277s-0.063,0.218,0.009,0.382c0.073,0.165,0.205,0.235,0.277,0.264c0.072,0.027,0.218,0.063,0.383-0.01s0.236-0.205,0.264-0.277s0.063-0.218-0.01-0.383c-0.073-0.164-0.205-0.235-0.277-0.263C11.124,9.182,11.06,9.163,10.983,9.163z M10.375,8.293h0.01H10.375z"/><path fill="#DE002A" d="M17.099,25.001c-1.298,0-2.687-0.186-4.111-0.571c-0.533-0.144-0.848-0.693-0.704-1.227c0.145-0.532,0.695-0.851,1.227-0.703c4.349,1.177,8.338,0.217,9.281-2.232c1.07-2.781-2.085-6.694-6.891-8.544c-1.175-0.453-2.371-0.759-3.554-0.908c-0.548-0.069-0.936-0.569-0.867-1.118c0.069-0.547,0.576-0.93,1.118-0.866c1.343,0.17,2.696,0.516,4.021,1.025c6.018,2.316,9.549,7.205,8.039,11.13C23.673,23.542,20.745,25,17.099,25.001z"/></svg>