<?xml version="1.0" standalone="no"?>
<!DOCTYPE svg PUBLIC "-//W3C//DTD SVG 20010904//EN"
 "http://www.w3.org/TR/2001/REC-SVG-20010904/DTD/svg10.dtd">
<svg version="1.0" xmlns="http://www.w3.org/2000/svg"
 width="98.000000pt" height="98.000000pt" viewBox="0 0 98.000000 98.000000"
 preserveAspectRatio="xMidYMid meet">
<metadata>
Created by potrace 1.11, written by Peter Selinger 2001-2013
</metadata>
<g transform="translate(0.000000,98.000000) scale(0.100000,-0.100000)"
fill="#000000" stroke="none">
<path d="M0 490 l0 -490 490 0 490 0 0 490 0 490 -490 0 -490 0 0 -490z m780
10 l0 -320 -30 0 -30 0 0 320 0 320 30 0 30 0 0 -320z m-92 50 c3 -205 0 -229
-35 -264 l-26 -26 -174 0 -175 0 -29 29 c-24 25 -29 37 -29 80 l0 51 55 0 c52
0 55 -1 55 -25 l0 -25 125 0 125 0 0 181 0 180 53 -3 52 -3 3 -175z"/>
</g>
</svg>
