<svg xmlns="http://www.w3.org/2000/svg" width="70" height="70" viewBox="0 0 50 50" fill="#161F26">
<path d="M40.8626 7.399C35.9627 2.62686 28.0508 2.5393 23.061 7.18009C22.9711 7.26765 22.8812 7.31144 22.8362 7.399L11.0134 18.9134C9.6648 20.2269 9.6648 22.3284 11.0134 23.598C12.362 24.9114 14.5198 24.9114 15.8234 23.598L27.6462 12.0836C28.5903 11.1642 29.804 10.595 31.0178 10.4637C32.771 10.2448 34.614 10.7701 36.0076 12.0836C37.3562 13.397 37.9406 15.2358 37.6709 16.9433C37.4911 18.1691 36.9516 19.3075 36.0076 20.2269L21.8023 34.1055L26.6573 38.8338L40.8626 24.9552C40.9525 24.8677 40.9975 24.8239 41.0874 24.7363C45.8525 19.8328 45.7625 12.1711 40.8626 7.399Z"/>
<path d="M34.254 13.8348C32.9054 12.5214 30.7476 12.5214 29.4439 13.8348L17.6211 25.3492C17.6211 25.3492 17.6211 25.3492 17.5762 25.393C16.6322 26.3124 15.4184 26.8816 14.2047 27.0129C12.4515 27.2318 10.6084 26.7064 9.21483 25.393C7.86622 24.0796 7.28182 22.2408 7.55154 20.5333C7.73136 19.395 8.22585 18.2567 9.12492 17.3373L21.0826 5.69152C22.4312 4.37809 22.4312 2.2766 21.0826 0.963163C19.734 -0.35027 17.5762 -0.35027 16.2276 0.963163L4.44974 12.4338C4.44974 12.4776 4.40479 12.4776 4.40479 12.4776C4.31488 12.5652 4.26993 12.6089 4.18002 12.6965C1.88739 15.0607 0.718595 18.0378 0.673641 21.0587C0.628687 22.3721 0.853455 23.6855 1.25804 24.9552C1.84243 26.794 2.92132 28.5453 4.40479 30.0338C5.93321 31.5224 7.73136 32.5293 9.61941 33.0985L3.28095 39.3154L8.09099 44L34.254 18.5194C35.6026 17.2497 35.6026 15.1482 34.254 13.8348Z"/>
</svg>