<svg xmlns="http://www.w3.org/2000/svg" viewBox="0 0 68 68"><path fill="#FFCA78" d="M65.5 13.09V6.68a3 3 0 0 0-3-3h-57a3 3 0 0 0-3 3v6.41h63z"/><path fill="#EFEFEF" d="M2.5 13.09v48.23a3 3 0 0 0 3 3h57a3 3 0 0 0 3-3V13.09h-63z"/><path fill="#FFF" d="M6.5 17.09h55v43.23h-55zM11.365 8.385a1.37 1.37 0 0 1-1.367 1.378c-.772 0-1.39-.617-1.39-1.378s.618-1.378 1.39-1.378c.76 0 1.367.617 1.367 1.378zm5.168 0a1.37 1.37 0 0 1-1.367 1.378c-.772 0-1.39-.617-1.39-1.378s.618-1.378 1.39-1.378c.761 0 1.367.617 1.367 1.378zm5.17 0a1.37 1.37 0 0 1-1.368 1.378c-.772 0-1.39-.617-1.39-1.378s.618-1.378 1.39-1.378c.76 0 1.367.617 1.367 1.378z"/><path fill="#EFEFEF" d="M26.785 8.385h32.063"/><path fill="#FFF" d="M55.694 39.84c-.088.138-.2.263-.313.388C52.024 43.673 43.72 51.013 34 51.013s-18.024-7.34-21.38-10.785a2.469 2.469 0 0 1 0-3.482C15.975 33.302 24.28 25.962 34 25.962c9.72 0 18.024 7.34 21.38 10.784.84.84.94 2.142.314 3.094z"/><path fill="#9DE0EE" d="M46.731 38.693c0 7.05-5.705 12.755-12.73 12.755-7.027 0-12.732-5.705-12.732-12.755 0-7.026 5.705-12.73 12.731-12.73s12.731 5.704 12.731 12.73z"/><path fill="#4E535F" d="M41.401 38.714c0 4.053-3.296 7.35-7.35 7.35s-7.33-3.297-7.33-7.35c0-.601.077-1.202.233-1.765a3.385 3.385 0 0 0 1.9.582c1.881 0 3.433-1.551 3.433-3.413 0-.853-.31-1.63-.834-2.23a7.201 7.201 0 0 1 2.598-.485c4.054 0 7.35 3.297 7.35 7.311z"/><path fill="#FFF" d="M39.358 36.97a.5.5 0 0 1-.429-.242 6.855 6.855 0 0 0-1.777-1.962.5.5 0 1 1 .598-.8 7.84 7.84 0 0 1 2.036 2.245.5.5 0 0 1-.428.758z"/><path fill="#414141" d="M62 60.32V17.09a.5.5 0 0 0-.5-.5h-55a.5.5 0 0 0-.5.5v43.23a.5.5 0 0 0 .5.5h55a.5.5 0 0 0 .5-.5zm-1-.5H7V17.59h54v42.23z"/><path fill="#414141" d="M5.5 64.82h7a.5.5 0 1 0 0-1h-7a2.503 2.503 0 0 1-2.5-2.5V13.59h62v47.73c0 1.379-1.122 2.5-2.5 2.5h-44a.5.5 0 1 0 0 1h44c1.93 0 3.5-1.57 3.5-3.5V6.68c0-1.93-1.57-3.5-3.5-3.5h-44a.5.5 0 1 0 0 1h44c1.378 0 2.5 1.121 2.5 2.5v5.91H3V6.68c0-1.379 1.122-2.5 2.5-2.5h7a.5.5 0 1 0 0-1h-7C3.57 3.18 2 4.75 2 6.68v54.64c0 1.93 1.57 3.5 3.5 3.5z"/><path fill="#414141" d="M14.5 63.82a.5.5 0 1 0 0 1h2a.5.5 0 1 0 0-1h-2zm2-59.64a.5.5 0 1 0 0-1h-2a.5.5 0 1 0 0 1h2zM8.108 8.385c0 1.035.848 1.878 1.89 1.878 1.03 0 1.867-.843 1.867-1.878a1.875 1.875 0 0 0-1.867-1.879c-1.042 0-1.89.843-1.89 1.88zm2.757 0c0 .485-.39.878-.867.878-.491 0-.89-.393-.89-.878s.399-.879.89-.879c.478 0 .867.395.867.88zm2.412 0c0 1.035.848 1.878 1.889 1.878 1.03 0 1.868-.843 1.868-1.878a1.875 1.875 0 0 0-1.868-1.879c-1.041 0-1.89.843-1.89 1.88zm1.889-.879c.479 0 .868.395.868.88s-.39.877-.868.877c-.49 0-.89-.393-.89-.878s.4-.879.89-.879zm7.036.88a1.875 1.875 0 0 0-1.867-1.88c-1.042 0-1.89.843-1.89 1.88 0 1.034.848 1.877 1.89 1.877 1.03 0 1.867-.843 1.867-1.878zm-2.757 0c0-.485.4-.88.89-.88.478 0 .867.395.867.88s-.389.877-.867.877a.885.885 0 0 1-.89-.878zm39.403.5a.5.5 0 1 0 0-1H26.785a.5.5 0 1 0 0 1h32.063zM12.26 40.575C20.013 48.534 29.325 51.949 34 51.949c4.712 0 14.023-3.452 21.752-11.385.13-.146.26-.292.362-.451a2.97 2.97 0 0 0-.375-3.714C52.535 33.11 44 25.462 34 25.462S15.465 33.11 12.266 36.393a2.97 2.97 0 0 0-.381 3.716c.102.161.231.308.376.468zM55.027 37.1a1.97 1.97 0 0 1 .244 2.473c-.072.114-.167.217-.248.306-2.105 2.16-6.575 6.25-12.217 8.68 2.708-2.43 4.425-5.947 4.425-9.866 0-4.396-2.163-8.287-5.473-10.695 6.134 2.349 11.032 6.807 13.27 9.102zm-8.796 1.593c0 4.965-2.967 9.24-7.213 11.164-1.616.41-3.294.656-5.018.656s-3.402-.246-5.018-.656c-4.246-1.924-7.213-6.199-7.213-11.164 0-6.744 5.486-12.23 12.231-12.23s12.231 5.486 12.231 12.23zm-33.254-1.598c2.234-2.291 7.131-6.749 13.265-9.097-3.31 2.408-5.473 6.299-5.473 10.695 0 3.92 1.717 7.437 4.426 9.866-5.642-2.429-10.109-6.515-12.205-8.666-.094-.104-.19-.207-.266-.327a1.973 1.973 0 0 1 .253-2.47z"/></svg>